<svg height="64" viewBox="0 0 49.917 49.931" width="64" xmlns="http://www.w3.org/2000/svg" xmlns:xlink="http://www.w3.org/1999/xlink"><clipPath id="a"><path d="m720.6 306.4h508.7v266h-508.7z"/></clipPath><clipPath id="b"><path d="m720.6 0h254.4v572.4h-254.4z"/></clipPath><clipPath id="c"><path d="m975 0h254.4v572.4h-254.4z"/></clipPath><clipPath id="d"><path d="m720.6 470.3h254.4v358.4h-254.4z"/></clipPath><clipPath id="e"><path d="m975 470.3h254.5v358.4h-254.5z"/></clipPath><g fill="#69779b"><path clip-path="url(#a)" d="m975 306.4-254.4 115.7 254.4 150.3 254.3-150.3z" opacity=".6" transform="matrix(.060252 0 0 .060252 -33.790421 .000006)"/><path clip-path="url(#b)" d="m720.6 422.1 254.4 150.3v-572.4z" opacity=".45" transform="matrix(.060252 0 0 .060252 -33.790421 .000006)"/><path clip-path="url(#c)" d="m975 0v572.4l254.3-150.3z" opacity=".8" transform="matrix(.060252 0 0 .060252 -33.790421 .000006)"/><path clip-path="url(#d)" d="m720.6 470.3 254.4 358.4v-208.1z" opacity=".45" transform="matrix(.060252 0 0 .060252 -33.790421 .000006)"/><path clip-path="url(#e)" d="m975 620.6v208.1l254.5-358.4z" opacity=".8" transform="matrix(.060252 0 0 .060252 -33.790421 .000006)"/></g></svg>